<svg xmlns="http://www.w3.org/2000/svg" viewBox="0 0 12.3 12.28"><title>Ativo 4</title><g id="Camada_2" data-name="Camada 2"><g id="Camada_1-2" data-name="Camada 1"><path d="M6.18,3a3.14,3.14,0,1,0,3.1,3.18A3.13,3.13,0,0,0,6.18,3Zm0,5.17a2,2,0,1,1,2-2A2,2,0,0,1,6.14,8.15Z" style="fill:#4f6533"/><path d="M8.67,2.87a.73.73,0,0,1,.73-.74.7.7,0,0,1,.74.72.74.74,0,0,1-.72.75A.77.77,0,0,1,8.67,2.87Z" style="fill:#4f6533"/><path d="M12.27,3.22A3.39,3.39,0,0,0,10,.16,2.51,2.51,0,0,0,9,0H3.27a3.21,3.21,0,0,0-.84.12A3.27,3.27,0,0,0,.06,2.88,8.92,8.92,0,0,0,0,4C0,5.67,0,7.3,0,8.93a3.3,3.3,0,0,0,2.4,3.18,5.68,5.68,0,0,0,1.64.16c1.66,0,3.32,0,5,0a3.34,3.34,0,0,0,3-2,5.15,5.15,0,0,0,.29-2.05C12.29,6.52,12.31,4.87,12.27,3.22ZM3.42,1.16c.91-.06,1.82,0,2.8,0a18.33,18.33,0,0,1,2.94.1A2.12,2.12,0,0,1,11.1,3.37a50.45,50.45,0,0,1,0,5.5,2.2,2.2,0,0,1-2.2,2.21,50.45,50.45,0,0,1-5.5,0A2.19,2.19,0,0,1,1.19,8.91a47,47,0,0,1,0-5.57A2.2,2.2,0,0,1,3.42,1.16Z" style="fill:#4f6533"/><path d="M6.18,3a3.14,3.14,0,1,0,3.1,3.18A3.13,3.13,0,0,0,6.18,3Zm0,5.17a2,2,0,1,1,2-2A2,2,0,0,1,6.14,8.15Z" style="fill:#4f6533"/><path d="M10.14,2.85a.74.74,0,0,1-.72.75.77.77,0,0,1-.75-.73.73.73,0,0,1,.73-.74A.7.7,0,0,1,10.14,2.85Z" style="fill:#4f6533"/><path d="M6.18,3a3.14,3.14,0,1,0,3.1,3.18A3.13,3.13,0,0,0,6.18,3Zm0,5.17a2,2,0,1,1,2-2A2,2,0,0,1,6.14,8.15Z" style="fill:#4f6533"/><path d="M10.14,2.85a.74.74,0,0,1-.72.75.77.77,0,0,1-.75-.73.73.73,0,0,1,.73-.74A.7.7,0,0,1,10.14,2.85Z" style="fill:#4f6533"/></g></g></svg>