<svg xmlns="http://www.w3.org/2000/svg" viewBox="0 0 13 13"><title>Ativo 6</title><g id="Camada_2" data-name="Camada 2"><g id="Camada_1-2" data-name="Camada 1"><path d="M13,13h0V8.23C13,5.9,12.5,4.1,9.77,4.1A2.84,2.84,0,0,0,7.22,5.5h0V4.32H4.6V13H7.29V8.7c0-1.13.21-2.22,1.62-2.22s1.4,1.29,1.4,2.29V13Z" style="fill:#4f6533"/><path d="M.21,4.32h2.7V13H.21Z" style="fill:#4f6533"/><path d="M1.56,0A1.56,1.56,0,0,0,0,1.56,1.58,1.58,0,0,0,1.56,3.14,1.58,1.58,0,0,0,3.12,1.56,1.56,1.56,0,0,0,1.56,0Z" style="fill:#4f6533"/></g></g></svg>