<svg xmlns="http://www.w3.org/2000/svg" viewBox="0 0 377.02 97.28"><title>Ativo 7</title><g id="Camada_2" data-name="Camada 2"><g id="Camada_1-2" data-name="Camada 1"><path d="M119.13,74.36a29,29,0,0,1-20.57-8,27.85,27.85,0,0,1-8-20,27.82,27.82,0,0,1,8-20,28.89,28.89,0,0,1,20.57-8.07c13.25,0,19.92,7.67,20.2,8l1.11,1.31-7,10.38-1.93-2.08a17.87,17.87,0,0,0-12-4.92,14.73,14.73,0,0,0-10.67,4.28,15.52,15.52,0,0,0-4.2,11c0,9,6.38,15.45,15.16,15.45,8.06,0,13.46-5.82,13.51-5.88l2.13-2.33,6.06,11-1,1.18C140.18,66.05,132.85,74.36,119.13,74.36Z" style="fill:#4f6533"/><path d="M163.72,74.36a20.69,20.69,0,0,1-13-4.3,16.06,16.06,0,0,1-6-12.94c0-7.92,4.58-13.69,13.25-16.68,6.42-2.21,13.6-2.49,18.51-2.5a7.68,7.68,0,0,0-2.25-5.36c-1.36-1.2-3.46-1.81-6.24-1.81-6.74,0-12.28,4.25-12.34,4.3l-2.06,1.6-6.1-10.83,1.46-1.2a33,33,0,0,1,19.82-6.35c6.82,0,12.2,1.89,16,5.61s5.73,9.1,5.73,15.91V73.19H177.23v-4A19.34,19.34,0,0,1,163.72,74.36Zm12.74-24.81c-12.07,0-17.69,2.25-17.69,7.09,0,2.8,2.16,5.63,7,5.63a9.78,9.78,0,0,0,7.77-4.21,15.75,15.75,0,0,0,3.09-8.51Z" style="fill:#4f6533"/><path d="M212.07,73.58c-4.18,0-7.43-.88-9.94-2.7-3.68-2.66-5.54-7.16-5.54-13.37V0h13.94V55.86c0,2.79.58,3.82.92,4.19s.71.56,2.08.56a13.47,13.47,0,0,0,1.38-.08l2.52-.31V73.11l-2,.26A28.88,28.88,0,0,1,212.07,73.58Z" style="fill:#4f6533"/><path d="M240.69,74.36c-6.25,0-11-1.78-14.24-5.28s-4.84-8.75-4.84-15.85V19.46h13.94V51.09c0,7.48,1.76,10,7,10,9,0,13.7-8.22,13.7-16.33V19.46h13.94V73.19H256.53v-5.3a22.36,22.36,0,0,1-15.84,6.47Z" style="fill:#4f6533"/><path d="M304.22,74.36A20.3,20.3,0,0,1,291,69.68v3.51H277.55V0h13.94V22.87A20.84,20.84,0,0,1,305,18.29c14.26,0,23.85,11.27,23.85,28,0,8.15-2.39,15.16-6.9,20.25A23.3,23.3,0,0,1,304.22,74.36Zm-1.07-43.29a10.92,10.92,0,0,0-8.22,3.41c-2.44,2.66-3.73,6.82-3.73,12a19.08,19.08,0,0,0,3,10.74,10,10,0,0,0,8.62,4.52A10.82,10.82,0,0,0,311.17,58c2.38-2.78,3.64-6.77,3.64-11.54s-1.18-8.63-3.4-11.41A10.25,10.25,0,0,0,303.15,31.07Z" style="fill:#4f6533"/><path d="M350.25,74.36a20.66,20.66,0,0,1-12.95-4.3,16,16,0,0,1-6-12.94c0-7.92,4.58-13.69,13.25-16.68,6.41-2.21,13.6-2.49,18.51-2.5a7.72,7.72,0,0,0-2.25-5.36c-1.37-1.2-3.47-1.81-6.25-1.81-6.73,0-12.28,4.25-12.33,4.3l-2.06,1.6L334,25.84l1.46-1.2a33,33,0,0,1,19.82-6.35c6.83,0,12.2,1.89,16,5.61S377,33,377,39.81V73.19H363.76v-4A19.3,19.3,0,0,1,350.25,74.36ZM363,49.55c-12.07,0-17.69,2.25-17.69,7.09,0,2.8,2.16,5.63,7,5.63a9.76,9.76,0,0,0,7.76-4.21,15.76,15.76,0,0,0,3.1-8.51Z" style="fill:#4f6533"/><path d="M153.81,94.08a4.88,4.88,0,0,0,3.25,1.32c.94,0,1.88-.49,1.88-1.41,0-2.08-5.82-1.66-5.82-5.35,0-2.06,1.84-3.23,4.1-3.23a5.1,5.1,0,0,1,3.65,1.26L160,88.3a4.12,4.12,0,0,0-2.8-1c-.94,0-1.85.41-1.85,1.39,0,2,5.82,1.59,5.82,5.31,0,1.88-1.61,3.29-4.1,3.29a6.08,6.08,0,0,1-4.3-1.66Z" style="fill:#4f6533"/><path d="M178.44,85.41c3.2,0,4.9,2.38,4.9,5.31,0,.29-.06.94-.06.94H175a3.7,3.7,0,0,0,3.89,3.74,5.4,5.4,0,0,0,3.36-1.32l.9,1.59a6.75,6.75,0,0,1-4.39,1.61,5.77,5.77,0,0,1-6-5.93C172.78,87.74,175.22,85.41,178.44,85.41ZM181.13,90a2.68,2.68,0,0,0-2.73-2.89A3.25,3.25,0,0,0,175.08,90Z" style="fill:#4f6533"/><path d="M195.84,85.68h2.1v1.5c0,.45,0,.83,0,.83h0a4.44,4.44,0,0,1,3.9-2.6,3.1,3.1,0,0,1,3.4,2.58h0a4.55,4.55,0,0,1,4-2.58c2.55,0,3.73,1.46,3.73,4.35V97h-2.17V90.23c0-1.59-.31-2.85-2-2.85a3.53,3.53,0,0,0-3.18,2.89,6.89,6.89,0,0,0-.16,1.57V97h-2.17V90.23c0-1.48-.22-2.85-2-2.85a3.59,3.59,0,0,0-3.25,3,6.37,6.37,0,0,0-.13,1.48V97h-2.17Z" style="fill:#4f6533"/><path d="M231,85.41c3.2,0,4.9,2.38,4.9,5.31,0,.29-.06.94-.06.94h-8.26a3.7,3.7,0,0,0,3.89,3.74,5.4,5.4,0,0,0,3.36-1.32l.9,1.59a6.75,6.75,0,0,1-4.39,1.61,5.77,5.77,0,0,1-6-5.93C225.37,87.74,227.81,85.41,231,85.41ZM233.72,90A2.68,2.68,0,0,0,231,87.14,3.25,3.25,0,0,0,227.67,90Z" style="fill:#4f6533"/><path d="M248.43,85.68h2.1v1.5c0,.45,0,.83,0,.83h0a4.63,4.63,0,0,1,4.26-2.6c2.66,0,3.89,1.46,3.89,4.35V97h-2.17V90.25c0-1.59-.34-2.84-2.15-2.84a3.71,3.71,0,0,0-3.58,2.77,5.16,5.16,0,0,0-.18,1.52V97h-2.17Z" style="fill:#4f6533"/><path d="M272.25,87.59h-1.48V85.84h1.55V82.57h2.1v3.27h2.73v1.75h-2.73v5a2.25,2.25,0,0,0,2.42,2.55,2.87,2.87,0,0,0,.51,0v1.93a6.57,6.57,0,0,1-.76,0c-1.45,0-4.34-.45-4.34-4.23Z" style="fill:#4f6533"/><path d="M294.53,85.41c3.2,0,4.9,2.38,4.9,5.31,0,.29-.07.94-.07.94H291.1A3.71,3.71,0,0,0,295,95.4a5.39,5.39,0,0,0,3.35-1.32l.9,1.59a6.75,6.75,0,0,1-4.39,1.61,5.77,5.77,0,0,1-6-5.93A5.56,5.56,0,0,1,294.53,85.41ZM297.21,90a2.67,2.67,0,0,0-2.73-2.89A3.24,3.24,0,0,0,291.17,90Z" style="fill:#4f6533"/><path d="M312.06,94.08a4.84,4.84,0,0,0,3.24,1.32c.94,0,1.88-.49,1.88-1.41,0-2.08-5.82-1.66-5.82-5.35,0-2.06,1.84-3.23,4.1-3.23a5.1,5.1,0,0,1,3.65,1.26l-.88,1.63a4.11,4.11,0,0,0-2.79-1c-.94,0-1.86.41-1.86,1.39,0,2,5.82,1.59,5.82,5.31,0,1.88-1.61,3.29-4.1,3.29a6.11,6.11,0,0,1-4.3-1.66Z" style="fill:#4f6533"/><path d="M54.88,21.46a.18.18,0,0,1,.11.34c-.44.21-.87.42-1.16.58A42,42,0,0,0,31.36,59.56a42.64,42.64,0,0,0,.54,6.73c.2,1.25.46,2.49.77,3.71s.7,2.48,1.13,3.69l1.14,0A34.54,34.54,0,0,0,48.42,71a35.93,35.93,0,0,0,3.3-1.61,30.59,30.59,0,0,1-2.63-2.71,29,29,0,0,1-2.22-2.94,29.56,29.56,0,0,1-4.93-16.41,31.32,31.32,0,0,1,.17-3.23,30.93,30.93,0,0,0,6.65.67,26.77,26.77,0,0,0,13.48-3.68,29.91,29.91,0,0,0,3.69-2.5,33.53,33.53,0,0,0,3.45-3.1A44.53,44.53,0,0,0,79.48,18.6c.07-.19.13-.37.19-.56a45.8,45.8,0,0,0,2.23-13H80.25c-12.55,0-22.79.83-30.81,2.55a59.48,59.48,0,0,0-6.09,1.61,39.09,39.09,0,0,0-6.21,2.56c-6.8,3.59-10.09,8.65-10.09,15.27A16.57,16.57,0,0,0,30.5,37.26C36.05,30,44.43,25.32,51.93,22.36a19,19,0,0,1,3-.9Z" style="fill:#4f6533"/><path d="M28.25,71.13c-.35-1.36-.63-2.74-.85-4.12a46.68,46.68,0,0,1,2.22-23.44L26.9,40.06a21,21,0,0,1-4.41-13,20.07,20.07,0,0,1,3.25-11.28,24.53,24.53,0,0,1,9.28-8A43.64,43.64,0,0,1,42,4.9q1-.33,2.07-.63A35,35,0,1,0,28.66,72.61C28.51,72.12,28.38,71.62,28.25,71.13Z" style="fill:#efaa3f"/><path d="M68.75,42.17A35.49,35.49,0,0,1,64.51,45a31.21,31.21,0,0,1-15.75,4.28q-1.11,0-2.19-.06a25.07,25.07,0,0,0,4.1,12,23.89,23.89,0,0,0,1.88,2.49A25.47,25.47,0,0,0,54.78,66l.69.62A35,35,0,0,0,70,41.19C69.55,41.53,69.15,41.86,68.75,42.17Z" style="fill:#efaa3f"/></g></g></svg>