<svg xmlns="http://www.w3.org/2000/svg" viewBox="0 0 195.43 118.25"><title>Ativo 11</title><g id="Camada_2" data-name="Camada 2"><g id="Camada_1-2" data-name="Camada 1"><path d="M19.52,102.62a19.78,19.78,0,0,1-14-5.45,19.7,19.7,0,0,1,0-27.29,19.69,19.69,0,0,1,14-5.5c9,0,13.59,5.22,13.78,5.45l.76.89-4.79,7.07L28,76.38A12.16,12.16,0,0,0,19.79,73a10,10,0,0,0-7.28,2.92,10.6,10.6,0,0,0-2.87,7.49C9.64,89.54,14,94,20,94a13.61,13.61,0,0,0,9.21-4l1.45-1.59,4.14,7.53-.7.81A19.84,19.84,0,0,1,19.52,102.62Z" style="fill:#fff"/><path d="M49.93,102.62a14,14,0,0,1-8.83-2.94A10.9,10.9,0,0,1,37,90.86c0-5.4,3.13-9.34,9-11.38a39.88,39.88,0,0,1,12.63-1.7,5.3,5.3,0,0,0-1.54-3.66,6.37,6.37,0,0,0-4.26-1.23,15.44,15.44,0,0,0-8.41,2.93L43,76.91l-4.16-7.39,1-.81a22.45,22.45,0,0,1,13.51-4.33c4.66,0,8.33,1.28,10.9,3.82s3.91,6.21,3.91,10.85v22.77h-9V99.1A13.19,13.19,0,0,1,49.93,102.62Zm8.7-16.92c-8.24,0-12.07,1.53-12.07,4.83,0,1.91,1.47,3.84,4.77,3.84a6.64,6.64,0,0,0,5.29-2.87,10.77,10.77,0,0,0,2.12-5.8Z" style="fill:#fff"/><path d="M82.91,102.09a11.25,11.25,0,0,1-6.78-1.84c-2.51-1.82-3.78-4.89-3.78-9.12V51.9h9.51V90c0,1.9.4,2.61.63,2.86s.48.38,1.42.38c.49,0,.93,0,.94,0L86.57,93v8.79l-1.33.17A18.18,18.18,0,0,1,82.91,102.09Z" style="fill:#fff"/><path d="M102.44,102.62c-4.27,0-7.53-1.21-9.72-3.6s-3.3-6-3.3-10.81v-23h9.51V86.75c0,5.1,1.2,6.82,4.77,6.82,6.13,0,9.34-5.6,9.34-11.13V65.17h9.51v36.65h-9.31V98.21a15.37,15.37,0,0,1-10.8,4.41Z" style="fill:#fff"/><path d="M145.77,102.62a13.77,13.77,0,0,1-9-3.2v2.4h-9.17V51.9h9.51V67.5a14.17,14.17,0,0,1,9.21-3.12c9.73,0,16.27,7.68,16.27,19.12,0,5.56-1.63,10.34-4.71,13.82A15.88,15.88,0,0,1,145.77,102.62ZM145,73.09a7.45,7.45,0,0,0-5.61,2.33c-1.66,1.81-2.54,4.65-2.54,8.21A13,13,0,0,0,139,91,6.87,6.87,0,0,0,144.84,94a7.37,7.37,0,0,0,5.67-2.61A11.9,11.9,0,0,0,153,83.56a12.34,12.34,0,0,0-2.31-7.78A7,7,0,0,0,145,73.09Z" style="fill:#fff"/><path d="M177.17,102.62a14,14,0,0,1-8.84-2.94,10.92,10.92,0,0,1-4.11-8.82c0-5.4,3.12-9.34,9-11.38a39.79,39.79,0,0,1,12.62-1.7,5.3,5.3,0,0,0-1.53-3.66,6.39,6.39,0,0,0-4.26-1.23,15.45,15.45,0,0,0-8.42,2.93l-1.4,1.09-4.17-7.39,1-.81a22.49,22.49,0,0,1,13.52-4.33c4.65,0,8.32,1.28,10.9,3.82s3.91,6.21,3.91,10.85v22.77h-9.05V99.1A13.16,13.16,0,0,1,177.17,102.62Zm8.69-16.92c-8.23,0-12.07,1.53-12.07,4.83,0,1.91,1.48,3.84,4.77,3.84a6.68,6.68,0,0,0,5.3-2.87A10.76,10.76,0,0,0,186,85.7Z" style="fill:#fff"/><path d="M43.18,116.07a3.31,3.31,0,0,0,2.21.9c.64,0,1.28-.34,1.28-1,0-1.42-4-1.13-4-3.65,0-1.41,1.26-2.2,2.8-2.2A3.5,3.5,0,0,1,48,111l-.6,1.12a2.8,2.8,0,0,0-1.91-.69c-.64,0-1.26.28-1.26,1,0,1.39,4,1.08,4,3.62,0,1.28-1.1,2.24-2.8,2.24a4.16,4.16,0,0,1-2.93-1.13Z" style="fill:#fff"/><path d="M60,110.16c2.18,0,3.34,1.62,3.34,3.62,0,.2,0,.64,0,.64H57.64A2.52,2.52,0,0,0,60.3,117a3.68,3.68,0,0,0,2.29-.9l.61,1.08a4.61,4.61,0,0,1-3,1.1,3.93,3.93,0,0,1-4.1-4A3.79,3.79,0,0,1,60,110.16Zm1.83,3.15a1.82,1.82,0,0,0-1.86-2,2.21,2.21,0,0,0-2.26,2Z" style="fill:#fff"/><path d="M71.84,110.34h1.44v1a5.49,5.49,0,0,1,0,.56h0a3,3,0,0,1,2.65-1.77,2.11,2.11,0,0,1,2.33,1.76h0A3.08,3.08,0,0,1,81,110.16c1.75,0,2.56,1,2.56,3v4.95H82.1v-4.63c0-1.08-.21-1.94-1.37-1.94a2.42,2.42,0,0,0-2.17,2,4.45,4.45,0,0,0-.11,1.07v3.53H77v-4.63c0-1-.15-1.94-1.34-1.94a2.44,2.44,0,0,0-2.22,2,4.69,4.69,0,0,0-.09,1v3.53H71.84Z" style="fill:#fff"/><path d="M95.85,110.16c2.18,0,3.34,1.62,3.34,3.62,0,.2,0,.64,0,.64H93.51A2.52,2.52,0,0,0,96.17,117a3.68,3.68,0,0,0,2.29-.9l.61,1.08a4.61,4.61,0,0,1-3,1.1,3.93,3.93,0,0,1-4.1-4A3.79,3.79,0,0,1,95.85,110.16Zm1.83,3.15a1.82,1.82,0,0,0-1.86-2,2.21,2.21,0,0,0-2.26,2Z" style="fill:#fff"/><path d="M107.71,110.34h1.44v1a5.49,5.49,0,0,1,0,.56h0a3.14,3.14,0,0,1,2.9-1.77c1.82,0,2.66,1,2.66,3v4.95h-1.48v-4.61c0-1.09-.23-1.94-1.47-1.94a2.52,2.52,0,0,0-2.44,1.89,3.75,3.75,0,0,0-.13,1v3.62h-1.48Z" style="fill:#fff"/><path d="M124,111.64h-1v-1.19H124v-2.23h1.43v2.23h1.87v1.19h-1.87v3.44a1.54,1.54,0,0,0,1.65,1.74,1.72,1.72,0,0,0,.35,0v1.31a4.06,4.06,0,0,1-.52,0,2.66,2.66,0,0,1-3-2.89Z" style="fill:#fff"/><path d="M139.16,110.16c2.18,0,3.34,1.62,3.34,3.62,0,.2,0,.64,0,.64h-5.64a2.52,2.52,0,0,0,2.66,2.55,3.68,3.68,0,0,0,2.29-.9l.61,1.08a4.61,4.61,0,0,1-3,1.1,3.93,3.93,0,0,1-4.1-4A3.79,3.79,0,0,1,139.16,110.16Zm1.83,3.15a1.82,1.82,0,0,0-1.86-2,2.21,2.21,0,0,0-2.26,2Z" style="fill:#fff"/><path d="M151.11,116.07a3.32,3.32,0,0,0,2.22.9c.64,0,1.28-.34,1.28-1,0-1.42-4-1.13-4-3.65,0-1.41,1.25-2.2,2.79-2.2a3.47,3.47,0,0,1,2.49.85l-.59,1.12a2.83,2.83,0,0,0-1.91-.69c-.64,0-1.27.28-1.27,1,0,1.39,4,1.08,4,3.62,0,1.28-1.1,2.24-2.79,2.24a4.13,4.13,0,0,1-2.93-1.13Z" style="fill:#fff"/><path d="M115.45,12.52a.12.12,0,0,1,.08.23l-.79.39A28.66,28.66,0,0,0,99.41,38.51a29,29,0,0,0,.37,4.59c.14.85.31,1.7.53,2.53s.47,1.69.77,2.52h.77a23.42,23.42,0,0,0,11.45-3,19.54,19.54,0,0,1-1.8-1.84,21.09,21.09,0,0,1-1.51-2,20.15,20.15,0,0,1-3.36-11.19c0-.74,0-1.48.11-2.2a21.89,21.89,0,0,0,4.54.45,18.29,18.29,0,0,0,9.19-2.5A21.46,21.46,0,0,0,123,24.2a23.53,23.53,0,0,0,2.36-2.12,30.4,30.4,0,0,0,6.89-11.51l.12-.38a31.51,31.51,0,0,0,1.53-8.85h-1.13a103.46,103.46,0,0,0-21,1.74c-1.49.33-2.88.69-4.15,1.1a26,26,0,0,0-4.23,1.75c-4.64,2.45-6.89,5.9-6.89,10.41a11.26,11.26,0,0,0,2.36,7c3.78-4.95,9.5-8.15,14.61-10.17a13.26,13.26,0,0,1,2-.61Z" style="fill:#fff"/><path d="M97.29,46.4c-.23-.93-.43-1.87-.58-2.81a31.76,31.76,0,0,1,1.52-16l-1.86-2.39a14.32,14.32,0,0,1-3-8.87,13.73,13.73,0,0,1,2.22-7.69,16.66,16.66,0,0,1,6.33-5.47,29,29,0,0,1,4.72-2c.46-.15.93-.29,1.42-.43A24.29,24.29,0,0,0,101.92,0a23.91,23.91,0,0,0-4.35,47.41C97.47,47.07,97.38,46.74,97.29,46.4Z" style="fill:#fff"/><path d="M124.91,26.65a24.7,24.7,0,0,1-2.88,2,21.32,21.32,0,0,1-10.75,2.92c-.5,0-1,0-1.49,0a17.1,17.1,0,0,0,2.79,8.15,16.17,16.17,0,0,0,1.29,1.7,17.31,17.31,0,0,0,1.52,1.57l.47.42A23.89,23.89,0,0,0,125.74,26C125.46,26.21,125.19,26.43,124.91,26.65Z" style="fill:#fff"/></g></g></svg>