<svg xmlns="http://www.w3.org/2000/svg" viewBox="0 0 118.5 118.5"><title>Ativo 17</title><g id="Camada_2" data-name="Camada 2"><g id="Camada_1-2" data-name="Camada 1"><path d="M33.89,89.31a.7.7,0,0,1,.18-1L54.23,59.61a.6.6,0,0,0,0-.72L34.07,30.15a.79.79,0,0,1-.25-.6c0-.56.37-.84,1.09-.84h6.52a1.63,1.63,0,0,1,1.45.72L58.69,52.25a.51.51,0,0,0,.37.12.49.49,0,0,0,.36-.12L75.11,29.43a1.63,1.63,0,0,1,1.45-.72h7.13a1,1,0,0,1,1,.42q.24.42-.24,1L64.25,58.89a1.11,1.11,0,0,0,0,.72L84.41,88.35a1,1,0,0,1,.24.72.69.69,0,0,1-.24.48.94.94,0,0,1-.72.24H77.05a1.62,1.62,0,0,1-1.45-.72L59.9,66.25a.39.39,0,0,0-.72,0L43.24,89.07a1.62,1.62,0,0,1-1.45.72H34.91A1.1,1.1,0,0,1,33.89,89.31Z" style="fill:#f2ebdf"/><circle cx="59.25" cy="59.25" r="56.75" style="fill:none;stroke:#f2ebdf;stroke-miterlimit:10;stroke-width:5px"/></g></g></svg>