<svg xmlns="http://www.w3.org/2000/svg" viewBox="0 0 117.78 154"><title>Ativo 8</title><g id="Camada_2" data-name="Camada 2"><g id="Camada_1-2" data-name="Camada 1"><path d="M74.42,56.2H71.83v-13H66.65V56.46a12.85,12.85,0,0,0-5.19,2.4V38.05H56.28V53.68a12.85,12.85,0,0,0-5.19-2.4v-8H45.91V51h-2.6a2.59,2.59,0,0,0-2.59,2.59v5.18a12.86,12.86,0,0,0,2.66,7.78h-.07a2.59,2.59,0,0,0-2.59,2.59v5.19a12.88,12.88,0,0,0,2.66,7.78h-.07a2.59,2.59,0,0,0-2.59,2.59V89.9a13,13,0,0,0,13,13h2.6v13h5.18v-7.78h2.59a13,13,0,0,0,13-13V89.9a2.59,2.59,0,0,0-2.6-2.59h-.06A12.86,12.86,0,0,0,77,79.53V74.35a2.59,2.59,0,0,0-2.6-2.59h-.06A12.88,12.88,0,0,0,77,64V58.79A2.59,2.59,0,0,0,74.42,56.2Zm-5.18,5.19h2.59V64a7.78,7.78,0,0,1-7.78,7.78H61.46v-2.6A7.77,7.77,0,0,1,69.24,61.39ZM45.91,71.76H48.5a7.78,7.78,0,0,1,7.78,7.77v2.6h-2.6a7.78,7.78,0,0,1-7.77-7.78ZM61.46,87.31V84.72a7.78,7.78,0,0,1,7.78-7.78h2.59v2.59a7.78,7.78,0,0,1-7.78,7.78ZM45.91,56.2H48.5A7.78,7.78,0,0,1,56.28,64v2.59h-2.6a7.77,7.77,0,0,1-7.77-7.78Zm0,33.7V87.31H48.5a7.78,7.78,0,0,1,7.78,7.78v2.59h-2.6A7.77,7.77,0,0,1,45.91,89.9Zm25.92,5.19a7.78,7.78,0,0,1-7.78,7.78H61.46v-2.6a7.77,7.77,0,0,1,7.78-7.77h2.59Z" style="fill:#4f6533"/><path d="M115.46,2.2a8,8,0,0,0-11,0L99.68,7A143.93,143.93,0,0,0,58.87,1.76,143.89,143.89,0,0,0,18.06,7L13.28,2.2a8,8,0,0,0-11,0,7.77,7.77,0,0,0,0,11l4.85,4.85a405.06,405.06,0,0,0-5.3,58.89,405.07,405.07,0,0,0,5.3,58.9l-4.85,4.84a7.77,7.77,0,0,0,0,11,8,8,0,0,0,11,0l4.83-4.82a162,162,0,0,0,40.76,5.27,162,162,0,0,0,40.76-5.27l4.83,4.82a7.78,7.78,0,1,0,11-11l-4.83-4.83a369.22,369.22,0,0,0,5.28-58.91A369.43,369.43,0,0,0,110.63,18l4.83-4.83A7.77,7.77,0,0,0,115.46,2.2Zm-3.67,7.33L106,15.33a2.55,2.55,0,0,0-.71,2.32,360.45,360.45,0,0,1,5.43,59.29,361.67,361.67,0,0,1-5.44,59.3,2.57,2.57,0,0,0,.71,2.32l5.8,5.79a2.57,2.57,0,0,1,0,3.66,2.63,2.63,0,0,1-3.66,0l-5.91-5.9a2.59,2.59,0,0,0-1.83-.76,2.74,2.74,0,0,0-.76.11,155.08,155.08,0,0,1-40.76,5.48,155,155,0,0,1-40.76-5.48,2.59,2.59,0,0,0-2.59.65L9.61,148a2.64,2.64,0,0,1-3.67,0,2.59,2.59,0,0,1,0-3.66l5.8-5.79a2.63,2.63,0,0,0,.72-2.28A404.17,404.17,0,0,1,7,76.94a404.16,404.16,0,0,1,5.44-59.33,2.57,2.57,0,0,0-.72-2.28l-5.8-5.8a2.59,2.59,0,0,1,0-3.66,2.66,2.66,0,0,1,3.67,0l5.91,5.91a2.59,2.59,0,0,0,2.7.6c.15-.05,15.55-5.44,40.65-5.44s40.49,5.39,40.64,5.45a2.61,2.61,0,0,0,2.71-.61l5.91-5.91a2.65,2.65,0,0,1,3.66,0A2.57,2.57,0,0,1,111.79,9.53Z" style="fill:#4f6533"/><path d="M27.76,76.94A31,31,0,0,1,36.42,55.4l-3.74-3.59a36.31,36.31,0,0,0,9.44,57.34l2.4-4.6A31,31,0,0,1,27.76,76.94Z" style="fill:#4f6533"/><path d="M81.21,48.33,78,52.42a31.11,31.11,0,0,1,0,49.05l3.2,4.08a36.3,36.3,0,0,0,0-57.22Z" style="fill:#4f6533"/></g></g></svg>