<svg xmlns="http://www.w3.org/2000/svg" viewBox="0 0 127.02 166"><title>Ativo 10</title><g id="Camada_2" data-name="Camada 2"><g id="Camada_1-2" data-name="Camada 1"><path d="M124.58,161.14h-5.36V75.2a2.43,2.43,0,0,0-2.43-2.43h-.3a5.08,5.08,0,0,0-1.88-2.89L95.83,55.79V33.62a2.43,2.43,0,0,0-2.43-2.43h-.3a5,5,0,0,0-1.88-2.89L62.11,6.46A.17.17,0,0,1,62,6.33V5a5,5,0,0,0-5-5H46.61a5,5,0,0,0-5,5v1.3a.16.16,0,0,1-.06.13L12.41,28.3a5,5,0,0,0-1.88,2.89h-.3A2.43,2.43,0,0,0,7.8,33.62V161.14H2.43a2.43,2.43,0,0,0,0,4.86H124.58a2.43,2.43,0,1,0,0-4.86ZM33.92,72.77h-.3a2.43,2.43,0,0,0-2.43,2.43v85.94H12.66V36.05H64.81a2.43,2.43,0,0,0,0-4.86H16.66L44.43,10.35a5,5,0,0,0,2-4V5a.17.17,0,0,1,.16-.17H57a.18.18,0,0,1,.17.17v1.3a5,5,0,0,0,2,4L87,31.19H75.2a2.43,2.43,0,0,0,0,4.86H91v16.1l-5.46-4.1a.17.17,0,0,1-.07-.14v-1.3a5,5,0,0,0-5-5H70a5,5,0,0,0-5,5v1.3a.17.17,0,0,1-.06.14L35.8,69.88A5.08,5.08,0,0,0,33.92,72.77Zm7.66,88.37H36.05V77.64h5.53Zm15.6,0H46.45V150.41H57.18Zm0-15.6H46.45V140H57.18Zm0-10.39H46.45v-5.54H57.18Zm0-10.4H46.45v-5.53H57.18Zm0-10.39H46.45v-5.54H57.18Zm0-10.4H46.45V98.43H57.18Zm0-10.4H46.45V88H57.18Zm0-10.39H46.45V77.64H57.18Zm57.18,78H62V77.64H90.8a2.44,2.44,0,0,0,0-4.87H40.05L67.83,51.94a5.06,5.06,0,0,0,2-4v-1.3a.16.16,0,0,1,.17-.16H80.4a.17.17,0,0,1,.17.16v1.3a5.06,5.06,0,0,0,2,4l27.78,20.83h-9.17a2.44,2.44,0,0,0,0,4.87h13.17Z" style="fill:#4f6533"/><path d="M106.39,83.17A2.43,2.43,0,0,0,104,85.6v5.2a2.43,2.43,0,1,0,4.86,0V85.6A2.43,2.43,0,0,0,106.39,83.17Z" style="fill:#4f6533"/><path d="M106.39,98.76a2.43,2.43,0,0,0-2.43,2.43v26a2.43,2.43,0,0,0,4.86,0v-26A2.43,2.43,0,0,0,106.39,98.76Z" style="fill:#4f6533"/></g></g></svg>