<svg xmlns="http://www.w3.org/2000/svg" viewBox="0 0 166 141.64"><title>Ativo 9</title><g id="Camada_2" data-name="Camada 2"><g id="Camada_1-2" data-name="Camada 1"><path d="M160,52.55c-7.53-8.94-16.15-7.51-24.49-6.13-4.3.71-8.74,1.45-13.38.95-.62-.07-1.23-.15-1.82-.25a39.91,39.91,0,0,0,5.18-10.39,2.44,2.44,0,1,0-4.63-1.51,35.22,35.22,0,0,1-5.7,10.67c-2.27-.69-4.41-1.53-6.51-2.35-8.26-3.23-16.08-6.28-26.78,1.85A22.64,22.64,0,0,0,70.38,38.1c-13.67-3.56-19.69,2.52-26.07,8.95l-.3.3C38.17,38.79,37.4,28.86,42.26,22c6.41-9.07,12.49-8.7,20.81-8,.12,3.86,1.32,6.87,3.6,8.94,2.74,2.48,6.59,3.09,10.17,2.91a29.54,29.54,0,0,0,3.74-.43c6.45-1.12,10.72-3.57,12.69-7.3,1.45-2.74,1.56-6.08.36-9.74C100.7,5,106,2.84,113.11,7.57c6,4,9.42,10.86,9.3,18.81a2.42,2.42,0,0,0,2.4,2.47h0a2.44,2.44,0,0,0,2.43-2.41c.14-9.63-4-18-11.47-22.94C106.07-3,98.2.82,90.58,4.48c-3.93,1.88-8,3.83-12.58,4.65-5.06.9-9.61.49-14,.1-9-.81-17.54-1.57-25.7,10a23.24,23.24,0,0,0-3.9,16.63,32.9,32.9,0,0,0,6.1,15A39.39,39.39,0,0,1,33.53,56c-4,2.34-8.39,3.47-12.61,4.56C12.74,62.68,4.28,64.87,1,76.09a25.08,25.08,0,0,0,.49,15.6A2.45,2.45,0,0,0,4.78,93.1a2.46,2.46,0,0,0,1.31-3,20.38,20.38,0,0,1-.41-12.61c2.39-8.2,7.87-9.93,15.44-11.9,1.45,3.57,3.69,6,6.57,7.21a10.71,10.71,0,0,0,4.06.77c3,0,6.51-1.13,10.34-3.36,5.45-3.19,8.49-6.84,9-10.87.41-3.06-.61-6.13-3-9.16,5.88-5.93,10.3-10.12,21-7.33,5.58,1.46,10.11,5.62,12.76,11.72,3.72,8.57,3.06,19.57-1.68,29A56.12,56.12,0,0,1,68.84,84c-8.45-.23-17.18-.46-23.43,9.42a25.26,25.26,0,0,0-3.82,15.28s0,.06,0,.1c-12.31,1.2-24-2.94-31-11.08a2.44,2.44,0,1,0-3.7,3.17c7.11,8.29,18.39,13,30.54,13a48.72,48.72,0,0,0,5-.26A32.1,32.1,0,0,0,47,123.78a40.12,40.12,0,0,0,18.89,14.63,49.75,49.75,0,0,0,18,3.23A58.91,58.91,0,0,0,95,140.57,54.58,54.58,0,0,0,113,133.9a2.44,2.44,0,0,0-2.51-4.18,49.65,49.65,0,0,1-16.35,6.07,48.26,48.26,0,0,1-26.43-1.93A35.21,35.21,0,0,1,51.05,121c-5.63-8.26-6.19-17.61-1.52-25,4.56-7.22,10.3-7.38,18.13-7.18.4,3.84,1.87,6.84,4.32,8.75A12.48,12.48,0,0,0,79.9,100a27.55,27.55,0,0,0,6.64-.92c6.12-1.56,10-4.23,11.68-8,1.23-2.82,1.11-6-.37-9.63,7.29-4.07,12.69-6.88,22.25-1.23,5.07,3,8.3,8.4,9.08,15.19,1.14,9.91-3.19,20.89-11.31,28.66a2.44,2.44,0,1,0,3.37,3.52,41.86,41.86,0,0,0,12.5-23c14.6-3.54,26.22-13.28,30.54-25.75,3.33-9.59,1.78-19.19-4.24-26.33ZM78.85,13.93a43.5,43.5,0,0,0,10.33-3.41A7.31,7.31,0,0,1,89,15.89c-1.21,2.28-4.4,3.94-9.22,4.77-4.66.81-7.95.38-9.79-1.29a7.05,7.05,0,0,1-2-4.94,46.5,46.5,0,0,0,10.89-.5ZM46.29,58.65C46,61.11,43.72,63.57,39.64,66c-4.23,2.46-7.73,3.25-10.13,2.29a7.3,7.3,0,0,1-3.63-4A42.94,42.94,0,0,0,36,60.23a45.71,45.71,0,0,0,8.65-6.64A7.05,7.05,0,0,1,46.29,58.65Zm86.23-6.82a7.3,7.3,0,0,1-1.72,5.09c-1.8,1.86-5.32,2.55-10.18,2-4.7-.53-7.75-1.87-9.05-4a7.13,7.13,0,0,1-.52-5.3,45.86,45.86,0,0,0,10.6,2.56,43.28,43.28,0,0,0,10.87-.38ZM93.76,89.14c-1,2.27-3.83,4-8.42,5.18-4.74,1.21-8.32,1-10.36-.59a7.29,7.29,0,0,1-2.4-4.81A43.69,43.69,0,0,0,83.4,87.81a45.6,45.6,0,0,0,10.15-4,7.08,7.08,0,0,1,.21,5.32Zm65.92-11.85C156.06,87.73,146.46,96,134.23,99.46a33.59,33.59,0,0,0-.21-4.6c-1-8.34-5-15-11.44-18.83-12.15-7.18-19.62-3-27.53,1.42a67.43,67.43,0,0,1-8.72,4.32c3.81-9.77,3.88-20.35,0-29.18a29.6,29.6,0,0,0-1.64-3.23c8.42-6.46,14.09-4.44,21.72-1.46-1,3.75-.65,7,1,9.59,2.13,3.47,6.39,5.58,12.66,6.28a32.12,32.12,0,0,0,3.57.21c4.71,0,8.29-1.23,10.65-3.67,2.16-2.22,3.2-5.4,3.08-9.25,7.73-1.27,13.43-1.9,18.94,4.63C161.2,61.48,162.43,69.35,159.68,77.29Z" style="fill:#4f6533"/></g></g></svg>